<?xml version="1.0" encoding="utf-8"?>
<!-- Generator: Adobe Illustrator 16.0.0, SVG Export Plug-In . SVG Version: 6.00 Build 0)  -->
<!DOCTYPE svg PUBLIC "-//W3C//DTD SVG 1.1//EN" "http://www.w3.org/Graphics/SVG/1.1/DTD/svg11.dtd">
<svg version="1.1" id="Layer_1" xmlns="http://www.w3.org/2000/svg" xmlns:xlink="http://www.w3.org/1999/xlink" x="0px" y="0px"
	 width="2800px" height="2800px" viewBox="0 0 2800 2800" enable-background="new 0 0 2800 2800" xml:space="preserve">
<g>
	<rect fill="#FFFFFF" width="2800" height="2800"/>
	<g>
		<g>
			<path fill="#F64067" d="M2372.2,1595.2c-1.7-57.6-2.4-115.1-2.5-172.7c-0.1-31-0.3-62-0.8-93c-0.3-13.9-0.2-27.6,1.1-41.4
				c1.2-12.7,2.3-25.7-0.5-38.3c-0.5-2.4-2.1-3.6-3.9-3.9c-0.9-1.3-2.3-2.3-4.4-2.2c-16.2,0.7-32-2.6-47.9-4.9
				c-15.2-2.2-30.6-3.8-45.9-5.4c-31.9-3.2-63.8-1.2-95.7,0.4c-32.5,1.7-65.1,3.8-97.6,5.2c-32.7,1.4-65.4,1.6-98.2,1.6
				c-65.6,0-131-1.2-196.5-3c-32-0.9-63.7-6.2-95.8-5.5c-11.6,0.3-23.1,2.1-34.6,2.6c-9.8,0.5-19.6,0.6-29.4,1.6
				c-3.9,0.4-8.7,0.7-12,3c-2.8,2-2.9,5.3-1.6,7.7c-0.1,0.3-0.1,0.7-0.1,1.1c-0.1,29-2.8,57.9-3.2,86.9c-0.4,30.4,0.2,60.9,0.1,91.4
				c-0.2,30.2-1.5,60.4-2.3,90.6c-0.4,14-1.3,27.9-2.9,41.9c-1.5,13.4-3,26.8-1.7,40.3c0.1,1.1,0.5,2,1,2.8
				c0.3,4.3,0.6,8.5,0.9,12.8c1.4,17.4,3,34.8,4.1,52.3c1.1,16.8,1.1,33.6,1.1,50.4c-0.1,52.5,0.8,106.3,25.4,154.1
				c11.6,22.6,27.7,45.7,47.9,61.4c1.9,1.5,3.9,3,5.9,4.3c0-0.1-0.1-0.2-0.1-0.3c8.6,7.1,18.1,13.2,28,18.2
				c16.2,8.3,33.5,14.5,51.2,18.8c2.3,0.8,4.5,1.6,6.8,2.3c24.3,8.1,48.7,13.7,74.3,15.5c48.1,3.4,96.2,6.4,144.4,6.3
				c48.2,0.2,96.4-2.9,144.4-6.3c25.6-1.8,49.9-7.4,74.3-15.5c2.3-0.8,4.6-1.5,6.8-2.3c17.7-4.2,35-10.5,51.2-18.8
				c9.9-5,19.4-11,28-18.2c0,0.1-0.1,0.2-0.1,0.3c2-1.4,4-2.8,5.9-4.3c20.2-15.8,36.3-38.8,47.9-61.4
				c24.6-47.8,25.5-101.6,25.4-154.1c0-16.8,0.1-33.6,1.1-50.4c1.1-17.5,2.8-34.9,4.1-52.3c0.5-6.5,1-13,1.4-19.5
				C2375.5,1595.3,2373.9,1595.2,2372.2,1595.2z"/>
			<ellipse fill="#B8DDDF" cx="1966.3" cy="2246.8" rx="262.4" ry="40.1"/>
			<g>
				<path fill="#FFFFFF" d="M1831.5,2225.4c2.6,9.3,16.8,10.6,25.6,10.9c6,0.2,12.7,0.7,18.7,0c5.1-0.6,9.7-2.4,14.7-3.2
					c5.4-0.9,10.8-1.1,16.1-2.9c1.4-0.5,2.3-1.2,3-2.1c4.6,0.4,8.9-5.4,4.6-9.2c-12.8-11.4-29.3-18-45.9-21.5
					c-7-1.5-15.5-3.9-22.6-1.4c-6.5,2.3-11.8,6.8-14.1,13.4C1830.1,2213.5,1828.9,2221,1831.5,2225.4z"/>
				<path fill="#333333" d="M1932.2,2223.7c-0.4-0.5-0.9-1.1-1.4-1.6v-204.5c0-7.1-11-7.1-11,0v195.4c-5.4-3.6-11.1-6.6-16.4-9.4
					c-13.5-7.3-28.3-13.7-43.5-16c-12.2-1.9-26.6-0.7-33.2,11.4c-6.7,12.4-3.8,30.1,8.2,38c13.8,9,33.9,6.7,49.3,4.6
					c13.4-1.9,27.4-4.9,40-10.3c0.1,0.1,0.2,0.2,0.3,0.3C1928.9,2237,1936.7,2229.2,1932.2,2223.7z M1881.2,2230.9
					c-8.3,1.2-16.8,1.7-25.1,1c-5.9-0.5-12.8-1.7-17.4-5.8c-4.4-3.8-4.8-10.6-4-16.1c0.7-5.5,2.9-8.8,7.5-10.9
					c10.2-4.7,26.9,1.4,37.3,5.4c9.9,3.8,19.4,8.8,28.4,14.3c2.3,1.4,4.7,2.8,6.9,4.3C1904.2,2227,1892.1,2229.3,1881.2,2230.9z"/>
			</g>
			<g>
				<path fill="#FFFFFF" d="M1974.7,2222.4c2.6,9.3,16.8,10.6,25.6,10.9c6,0.2,12.7,0.7,18.7,0c5.1-0.6,9.7-2.4,14.7-3.2
					c5.4-0.9,10.8-1.1,16.1-2.9c1.4-0.5,2.3-1.2,3-2.1c4.6,0.4,8.9-5.4,4.6-9.2c-12.8-11.4-29.3-18-45.9-21.5
					c-7-1.5-15.5-3.9-22.6-1.4c-6.5,2.3-11.8,6.8-14.1,13.4C1973.3,2210.5,1972,2218,1974.7,2222.4z"/>
				<path fill="#333333" d="M2075.3,2220.7c-0.4-0.5-0.9-1.1-1.4-1.6v-204.5c0-7.1-11-7.1-11,0v195.4c-5.4-3.6-11.1-6.6-16.4-9.4
					c-13.5-7.3-28.3-13.7-43.5-16c-12.2-1.9-26.6-0.7-33.2,11.4c-6.7,12.4-3.8,30.1,8.2,38c13.8,9,33.9,6.7,49.3,4.6
					c13.4-1.9,27.4-4.9,40-10.3c0.1,0.1,0.2,0.2,0.3,0.3C2072.1,2234,2079.8,2226.2,2075.3,2220.7z M2024.4,2227.9
					c-8.3,1.2-16.8,1.7-25.1,1c-5.9-0.5-12.8-1.7-17.4-5.8c-4.4-3.8-4.8-10.6-4-16.1c0.7-5.5,2.9-8.8,7.5-10.9
					c10.2-4.7,26.9,1.4,37.3,5.4c9.9,3.8,19.4,8.8,28.4,14.3c2.3,1.4,4.7,2.8,6.9,4.3C2047.4,2224,2035.3,2226.3,2024.4,2227.9z"/>
			</g>
			<g>
				<path fill="#F39DA3" d="M2000.6,1453.8c-0.7-0.5-1.5-0.8-2.5-0.9l-160.5-16.5c-5-0.5-7,4.9-5.2,8.3
					c4.9,61.9,90.5,89.1,140.2,64.2c19.3-9.7,31.4-27.8,33.7-49.2C2006.7,1455.9,2003.6,1453.8,2000.6,1453.8z"/>
				<path fill="#333333" d="M2000.6,1453.8c-0.7-0.5-1.5-0.8-2.5-0.9l-160.5-16.5c-5-0.5-7,4.9-5.2,8.3
					c4.9,61.9,90.5,89.1,140.2,64.2c19.3-9.7,31.4-27.8,33.7-49.2C2006.7,1455.9,2003.6,1453.8,2000.6,1453.8z M1888.1,1497.8
					c3.6-2,7.9-2.9,11.6-3.5c5.4-0.9,13.9-1.4,18.2,2.8c2.3,2.3,5,2.6,7.7,0.8c7.8-5,18.9,1.2,25.3,7.3
					C1931,1509.2,1907.7,1506,1888.1,1497.8z M1962.5,1501.8c-0.2-0.5-0.5-0.9-0.9-1.3c-9.2-10.8-25.2-18.7-38.8-13.2
					c-12.9-8.3-34.7-5.3-45.6,5.2c-6.8-3.9-12.9-8.4-17.7-13.5c-8.2-8.6-13.6-19.1-15.6-30.7l150.7,15.5
					C1990.8,1483.4,1978.5,1495.5,1962.5,1501.8z"/>
			</g>
			<path fill="#333333" d="M2393.1,1266.2c0.6-1.1,0.8-2.3,0.5-3.8c-0.2-0.9-0.4-1.8-0.6-2.6c0-2.1,0-4.1-0.1-6.2
				c-0.5-0.1-0.9-0.3-1.4-0.4c-1.4-6-2.9-11.9-4.8-17.8c-5.3-16.3-13.3-31.4-26.6-42.6c-14.8-12.6-32.9-21.4-50.9-28.5
				c-17.9-7-36.3-12.9-53.3-21.9c-13.5-7.1-28.5-16.7-32.6-32.2c0.5,0.1,0.9,0.2,1.4,0.3c3.8,1,6.4-1.8,6.8-4.9
				c0.7-0.9,1.2-2,1.2-3.4c0-23.3-1-46.7,0-70c0-1-0.2-1.9-0.5-2.7c1.1-3.2-0.6-7.6-5-7.8c-64.8-4-129.1-13.7-194-15.9
				c-65.5-2.2-131.1,0-196.4,5.5c-31.8,2.7-63.5,6.3-95.1,10.6c-4.2,0.6-4.8,4.6-3.2,7.5c-1,0.3-2,0.9-2.7,1.8
				c-2.3,2.9-1.9,6.3,0.8,8.3c0.1,20.5,0.7,41.1-2.8,61.3c-0.7,3.8,2.2,6.4,5.2,6.8c0.5,1.4,1.7,2.6,3.7,2.9c2.5,0.5,5,0.9,7.5,1.2
				c-4.6,14.5-19.1,23.7-32.1,30.6c-17,9-35.4,14.8-53.3,21.9c-18,7.1-36,15.9-50.9,28.5c-13.2,11.2-21.3,26.3-26.6,42.6
				c-1.9,5.8-3.4,11.7-4.8,17.6c-0.7,0.2-1.4,0.4-2.1,0.6c0,3.1-0.1,6.3-0.1,9.4c-0.1,0.5-0.1,0.9,0,1.3
				c-1.2,107.2-4.2,214.4-1.7,321.5c0.1,3.5,0.1,7,0.2,10.4c0,0,0,0,0,0c0.1,5.1,0.1,10.3,0.3,15.4c0.1,10.8,0.2,21.6,0.2,32.4
				c0,1.3,0.4,2.4,1,3.3c2.2,51.6,6,103.2,7,154.9c0.5,28.3,0.3,58.6,11.7,85c9.5,21.9,25.8,39.5,44.5,53.9
				c20.1,15.4,41.9,28,65.4,37.2c24.7,9.7,50.5,16.4,76.6,21.4c25.8,4.9,51.9,8.4,78.1,11.2c29.1,3.2,58.2,6.2,87.5,7.8
				c9.9,0.5,19.8,0.9,29.7,1.3c0,0.1,0,0.2,0,0.4c2-0.1,3.9-0.1,5.9-0.2c2,0.1,3.9,0.1,5.9,0.2c0-0.1,0-0.2,0-0.4
				c9.9-0.3,19.8-0.8,29.7-1.3c29.3-1.5,58.4-4.5,87.5-7.8c26.1-2.9,52.2-6.3,78.1-11.2c26.1-5,51.9-11.7,76.6-21.4
				c23.5-9.3,45.4-21.8,65.4-37.2c18.7-14.4,35-32,44.5-53.9c11.4-26.4,11.2-56.7,11.7-85c1-51.7,4.7-103.2,7-154.9
				c0.6-0.8,1-1.9,1-3.3c0-10.8,0.1-21.6,0.2-32.4c0.1-5.1,0.2-10.3,0.3-15.4c0,0,0,0,0,0c0.1-3.5,0.1-6.9,0.2-10.4
				C2397.2,1479.2,2394.3,1372.7,2393.1,1266.2z M1940.9,1016.5c32.7-0.8,65.5-0.8,98.2,0.5c32.5,1.3,64.9,4.4,97.3,7.7
				c8.6,0.9,17.2,1.7,25.7,2.6c-6.6,0.1-13.3,0.1-19.9,0.3c-16.2,0.6-32.4,1-48.6,0.2c-16.1-0.8-32.1-3.7-48.2-5.1
				c-32.1-2.7-64.4-2.1-96.5-0.7c-31.3,1.3-62.6,2.8-93.9,4.2c-27.3,1.2-55.3,4.3-82.9,2.9
				C1828.1,1022.2,1884.4,1017.9,1940.9,1016.5z M1826.2,1038.7c29.9-1.6,59.9-2.6,89.8-4.1c32.2-1.6,64.4-3.3,96.6-2.6
				c16.1,0.3,32.1,1.4,48.1,3.2c16.2,1.9,32.1,3.9,48.4,4c20.7,0.2,41.5-1.2,62.2-1.5c8.9-0.1,17.7-0.7,26.5-1.6
				c7.8-0.8,15.9-1.6,23.7-0.3c-0.1,2.7-0.2,5.4-0.2,8c-4.1-0.6-8.4,0-12.5,0.7c-7.3,1.1-14.2,2.4-21.6,2.8
				c-16.6,0.9-33.2,1.5-49.8,1.9c-33.1,0.8-66.2,1-99.3,1.6c-33,0.6-65.9,2.9-98.8,3.9c-33.1,1-66.2-0.5-99.3-0.9
				c-15.8-0.2-31.1-1-46.8-2.8c-15.1-1.7-30.5-3.1-45.5-0.1c0-4.5,0-9-0.1-13.5C1773.6,1041.5,1800.1,1040.1,1826.2,1038.7z
				 M1747.7,1061.4c0.9,0.3,1.8,0.4,2.9,0.1c13.4-2.7,27.4-1.2,40.9,0.3c14.2,1.6,28.2,2.9,42.5,2.9c33.1,0.2,66.2,1.8,99.3,1.1
				c33-0.6,65.9-3.3,98.8-4c33.1-0.7,66.2-0.8,99.3-1.6c16.6-0.4,33.2-0.9,49.8-1.8c7.7-0.4,15.3-0.6,22.9-2
				c5.5-1.1,11.6-2.9,17.1-1.5c0,5.2,0,10.4,0.1,15.6c-12.3-1.8-25.6,0.3-37.9,1.2c-16.4,1.3-32.9,2.4-49.3,3.3
				c-33,1.9-66.1,3-99.2,3.5c-65.5,0.8-130.8-3.7-196.3-4.1c-17.5-0.1-35-0.5-52.5-1.6c-12.2-0.8-25.7-2.8-37.4,1.8
				c-0.5,0.2-1,0.5-1.4,0.7C1747.6,1070.9,1747.7,1066.1,1747.7,1061.4z M1745.1,1099.8c0.8-5,1.3-10,1.7-15
				c1.2,1.1,2.8,1.5,4.8,0.7c10.8-4.2,23.3-2.1,34.4-1.4c16.2,1.1,32.4,1.4,48.6,1.5c32.6,0.3,65.1,0.8,97.7,2.2
				c66,2.9,131.8,2.2,197.7-1.4c16.5-0.9,32.9-2,49.3-3.2c7.5-0.6,14.9-1.4,22.4-1.6c5.8-0.1,12-1.1,17.8-0.2c0.6,0.1,1.2,0.1,1.8,0
				c0.1,5.7,0.1,11.5,0.2,17.2c-11.1-1.5-22.6,0.3-33.7,1.4c-15.1,1.4-30.6,0.9-45.8,1.5c-16.2,0.6-32.4,1-48.6,0.2
				c-16.1-0.8-32.1-3.7-48.2-5.1c-32.1-2.7-64.4-2.1-96.5-0.7c-31.3,1.3-62.6,2.8-93.9,4.2c-24.2,1.1-48.9,3.6-73.3,3.2
				c-2.1-1.8-5.5-2.2-7.4-0.2c-9.6-0.4-19.1-1.4-28.6-3.2C1745.5,1099.9,1745.3,1099.9,1745.1,1099.8z M2364.3,1255.4
				c0,1.9,0.1,3.7,0.2,5.6c1.8,31.3,2,62.7,2,94.1c0,32.3,0.8,64.7,1.4,97c0.7,32.4,1.1,64.9-0.3,97.3c-0.7,15.8-1.7,31.5-1.9,47.3
				c-0.1,4.3-0.1,8.7-0.2,13c-2,25.4-5,50.8-5.8,75.9c-1.8,53.3,3.5,107.1-14.6,158.4c-7.8,22.1-20,43.2-35.4,61.2
				c-2.2-0.7-4.8-0.2-6.4,2.3c-11.1,17.6-28.6,29.7-46.8,39c-18.4,9.4-38.6,15.7-58.9,19.5c-1.8,0.3-2.9,1.3-3.5,2.5
				c-3.1,1-6.3,2-9.5,2.9c-15.7,4.6-31.5,7.6-47.8,9.1c-15.7,1.4-31.5,1.7-47.3,2.8c-32,2.1-63.9,3.9-96,3.9c0,0,0,0,0-0.1
				c-2.3,0-4.6,0-6.9,0c-2.3,0-4.6,0-6.9,0c0,0,0,0,0,0.1c-32.1,0-64-1.8-96-3.9c-15.7-1.1-31.5-1.4-47.3-2.8
				c-16.3-1.4-32.1-4.4-47.8-9.1c-3.2-0.9-6.3-1.9-9.5-2.9c-0.6-1.2-1.7-2.2-3.5-2.5c-20.3-3.8-40.5-10.1-58.9-19.5
				c-18.2-9.3-35.8-21.4-46.8-39c-1.6-2.5-4.2-3-6.4-2.3c-15.3-18-27.6-39.1-35.4-61.2c-18.1-51.3-12.7-105.1-14.6-158.4
				c-0.9-25.1-3.8-50.5-5.8-75.9c-0.1-4.3-0.1-8.7-0.2-13c-0.2-15.8-1.3-31.5-1.9-47.3c-1.4-32.4-0.9-64.9-0.3-97.3
				c0.6-32.3,1.4-64.7,1.4-97c0-31.4,0.2-62.8,2-94.1c0.1-0.9,0.1-1.9,0.1-2.8c0.2-0.4,0.4-0.9,0.5-1.5
				c7.5-43.4,55.8-57.8,91.5-71.1c18.8-7,37.7-14.2,53.7-26.7c14.4-11.3,23.2-27.3,27.6-44.8c14.7,0.2,29.4-0.6,44-1.4
				c29.9-1.6,59.9-2.6,89.8-4.1c32.2-1.6,64.4-3.3,96.6-2.6c16.1,0.3,32.1,1.4,48.1,3.2c16.2,1.9,32.1,3.9,48.4,4
				c20.7,0.2,41.5-1.2,62.2-1.5c6.6-0.1,13.1-0.5,19.6-1c4.1,18.7,13.1,36.1,28.4,48.1c15.9,12.4,34.9,19.7,53.7,26.7
				C2308.4,1198.7,2356,1213,2364.3,1255.4z M2375.3,1788.8c-0.5,29.3,1,60.8-8.9,88.8c-7.9,22.4-24.6,40.6-43.2,54.8
				c-20.1,15.5-42.3,27.9-66,36.9c-49.4,18.9-102.7,25.8-154.9,31.4c-38.5,4.2-77,6.9-115.6,8.1c-38.6-1.2-77-3.9-115.6-8.1
				c-52.2-5.6-105.5-12.5-154.9-31.4c-23.7-9.1-45.8-21.5-66-36.9c-18.6-14.2-35.3-32.4-43.2-54.8c-9.9-28-8.4-59.5-8.9-88.8
				c-0.5-31.7-2.4-63.3-4.2-94.9c-1.5-25.6-3-51.4-3.7-77.1c-0.4-56.6-1.8-113.1-1.4-169.7c0.5-61.1,1.8-122.2,2.5-183.2
				c3.8-17.7,8.1-35.8,18.6-50.8c10.8-15.4,28.4-24.7,44.9-32.5c16.6-7.8,34.1-13.3,51-20.4c17.1-7.2,35.6-15.9,47.3-30.9
				c3.8-4.8,6.6-10.2,8.1-16.1c3.2,0.3,6.4,0.5,9.6,0.7c-4.6,16.1-13.3,29.9-27.6,39.8c-16.5,11.6-36.4,18.2-55.2,25
				c-35,12.7-77.5,30-87.9,69.2c-0.7,0.2-1.4,0.3-2.2,0.5c0,0.9,0,1.9,0,2.8c0.1,13.7-1.3,27.5-1.6,41.2
				c-0.4,16.3-0.5,32.6-0.6,48.9c-0.2,64.8-3.3,129.8-1.6,194.6c0.5,17.8,1.9,35.5,2.3,53.3c0,2.1,0.1,4.1,0.1,6.2
				c-0.1,0-0.3,0-0.4,0c0.2,2.5,0.3,5.1,0.5,7.6c0.2,13.2,0.4,26.4,2.1,39.5c0.2,1.2,0.6,2.2,1.3,3c0.6,7.2,1.1,14.4,1.6,21.6
				c1.1,16.8,1.1,33.6,1.1,50.4c-0.1,52.5,0.8,106.3,25.4,154.1c11.6,22.6,27.7,45.7,47.9,61.4c1.9,1.5,3.9,3,5.9,4.3
				c0-0.1-0.1-0.2-0.1-0.3c8.6,7.1,18.1,13.2,28,18.2c16.2,8.3,33.5,14.5,51.2,18.8c2.3,0.8,4.5,1.6,6.8,2.3
				c24.3,8.1,48.7,13.7,74.3,15.5c48.1,3.4,96.2,6.4,144.4,6.3c48.2,0.2,96.4-2.9,144.4-6.3c25.6-1.8,49.9-7.4,74.3-15.5
				c2.3-0.8,4.6-1.5,6.8-2.3c17.7-4.2,35-10.5,51.2-18.8c9.9-5,19.4-11,28-18.2c0,0.1-0.1,0.2-0.1,0.3c2-1.4,4-2.8,5.9-4.3
				c20.2-15.8,36.3-38.8,47.9-61.4c24.6-47.8,25.5-101.6,25.4-154.1c0-16.8,0.1-33.6,1.1-50.4c0.5-7.2,1-14.4,1.6-21.6
				c0.7-0.8,1.1-1.8,1.3-3c1.7-13.1,1.9-26.3,2.1-39.5c0.2-2.5,0.4-5.1,0.5-7.6c-0.1,0-0.3,0-0.4,0c0-2.1,0.1-4.1,0.1-6.2
				c0.3-17.8,1.8-35.5,2.3-53.3c1.7-64.8-1.4-129.8-1.6-194.6c0-16.3-0.2-32.6-0.6-48.9c-0.3-11.5-1.3-22.9-1.6-34.4
				c0.3-1.1,0.3-2.3-0.1-3.4c0-1.1,0-2.3,0-3.4c0-0.9,0-1.9,0-2.8c-0.5-0.1-1-0.3-1.5-0.4c-10.4-39.3-52.9-56.6-88-69.3
				c-18.8-6.8-38.7-13.4-55.2-25c-15.4-10.8-24.3-26-28.6-43.9c3.3-0.3,6.6-0.6,9.9-0.6c0,0.1,0,0.1,0,0.2c1,7.4,4.3,14.1,8.8,19.9
				c11.7,15,30.2,23.7,47.3,30.9c16.9,7.1,34.4,12.5,51,20.4c16.5,7.8,34.2,17.2,44.9,32.5c9.9,14.2,14.3,31.1,18,47.8
				c0.7,62.1,2,124.2,2.5,186.3c0.5,56.6-1,113.1-1.4,169.7c-0.7,25.8-2.2,51.5-3.7,77.1C2377.6,1725.5,2375.8,1757.1,2375.3,1788.8
				z"/>
			<g>
				
					<ellipse transform="matrix(0.9657 0.2598 -0.2598 0.9657 442.0662 -509.8042)" fill="#F39DA3" cx="2149.8" cy="1417.6" rx="40.7" ry="31.6"/>
				
					<ellipse transform="matrix(0.9657 0.2598 -0.2598 0.9657 439.4751 -518.653)" fill="#FFFFFF" cx="2182.1" cy="1403.5" rx="19" ry="12.4"/>
				<path fill="#333333" d="M2147.8,1364.3c-1.8-6.8-12.5-4-10.6,2.9c4.2,15.8-16,23.4-28.1,17.5c-11-5.3-5-18.7-3.1-27.8
					c1.4-6.9-9.2-9.8-10.6-2.9c-1.6,7.8-4.5,15.9-3.5,23.9c1.2,9.7,8.2,15.1,16.9,18.4C2128.9,1404.2,2153.6,1386,2147.8,1364.3z"/>
			</g>
			<g>
				
					<ellipse transform="matrix(-0.9959 -9.045039e-02 9.045039e-02 -0.9959 3292.0159 2891.7085)" fill="#F39DA3" cx="1711.5" cy="1371.3" rx="40.7" ry="31.6"/>
				
					<ellipse transform="matrix(-0.9959 -9.045228e-02 9.045228e-02 -0.9959 3243.4453 2840.6655)" fill="#FFFFFF" cx="1686.1" cy="1346.8" rx="19" ry="12.4"/>
				<path fill="#333333" d="M1731.8,1322c4.1-5.8,13.1,0.6,9,6.4c-9.4,13.4,6.9,27.5,20.3,26.2c12.2-1.2,11.1-15.8,12.5-25
					c1.1-7,12-6,11,1c-1.2,7.9-1.2,16.5-5,23.6c-4.5,8.7-13,11.3-22.2,11.4C1735.8,1365.9,1718.9,1340.3,1731.8,1322z"/>
			</g>
			<ellipse fill="#FF648D" cx="2138.2" cy="1818.6" rx="43" ry="34.5"/>
			<ellipse fill="#FF648D" cx="2205.4" cy="1752.8" rx="28.9" ry="23.2"/>
			<ellipse fill="#FF648D" cx="1781.5" cy="1591.7" rx="28.9" ry="23.2"/>
			<ellipse fill="#FF648D" cx="1878.4" cy="1818.6" rx="28.9" ry="23.2"/>
		</g>
		<g>
			<path fill="#FFFFFF" d="M1368.6,1684.8c0.1,1.7,0.8,3,1.8,3.9c2.2,4.8,7.1,7.8,11.9,9.5c11.2,4.2,24.9,2.7,33.7-6
				c4.7-4.6,8.7-10.7,11.4-16.7c3.1-6.9,3.3-13.7,4.1-21.2c0.5-4.4-3.7-6-7-4.9c-1.3-1.5-3.2-2.4-5.5-1.8c-5,1.3-9.5,3.7-13.8,6.3
				c-3.2,1.4-6.5,2.9-9.6,4.7c-4.4,2.6-8.9,5.3-13,8.4C1375.3,1670.8,1368.3,1675.8,1368.6,1684.8z"/>
			<path fill="#333333" d="M1361.6,1695.3c4.4,6.9,12.3,10.5,19.9,12.7c10.5,3,21.5,2.7,31.3-2.6c18.5-10.1,29.9-32.4,27.9-53.3
				c-0.1-0.6-0.2-1.2-0.4-1.7c31.7-20.5,63.2-41.7,91-67.4c27.7-25.7,56.2-59.1,56.5-99c0.1-7.1-10.9-7.1-11,0
				c-0.3,37.6-29.1,69.3-55.3,93.1c-26.8,24.3-56.8,44.4-87.1,64c-0.6-0.3-1.3-0.5-2.1-0.6c-3.6-0.3-7.3,0-10.9,0.6
				c-16.4,2.5-32.6,10.3-45.6,20.4C1366.5,1668.8,1353.5,1682.7,1361.6,1695.3z M1370.2,1686.2c0.2-3.6,3.8-8.3,7.1-11.5
				c5-4.9,10.8-8.8,16.9-12.2c9.9-5.4,21.7-10.7,33.3-11.1c0.5,1.1,1.3,2.1,2.4,2.6c0.8,17-8.8,37.4-25.8,43.2
				c-8.6,2.9-17.7,1.9-25.8-2.1c-2.6-1.3-5.1-2.7-6.9-4.9C1370.4,1689,1370.1,1687.7,1370.2,1686.2z"/>
		</g>
		<g>
			<path fill="#FFFFFF" d="M2514.8,1798.9c-5-7.1-11.7-13.3-17.8-19.5c-6.8-6.8-14-13.2-21.5-19.2c-4.7-3.7-11.2,1.5-9.4,5.8
				c0.2,7.6-2.5,15.4-3.4,22.9c-1,8.2,0.7,16.1,3.9,23.6c6.1,14.4,20.5,21.4,35.6,19.2C2517,1829.7,2522.9,1810.5,2514.8,1798.9z"/>
			<path fill="#333333" d="M2524.4,1805c-3.8-17.6-20.5-31.8-34.2-42.2c-6-4.5-12.4-8.7-19.2-12c-0.8-0.4-1.5-0.5-2.2-0.6
				c-4.3-7.6-7.5-15.8-10.3-24.1c-4.1-12.2-8.3-24.4-13-36.4c-10.2-25.9-19.2-51.7-26.4-78.6c-6.2-23.4-10.7-47.2-17-70.6
				c-2.2-8.1-4.2-16.3-5.6-24.6c-0.7-4.3-2.6-30.1-7.6-25c-5,5.1-4.7,13.1-4.1,19.7c0.8,9,2.9,18,5.1,26.7
				c5.8,23,10.7,46.2,16.6,69.2c7.2,28.2,16.2,55.5,26.9,82.6c5,12.7,9.6,25.4,13.9,38.3c3.5,10.6,7.4,21.2,13.3,30.7
				c-3,3.5-4.3,8.5-5,13c-1.4,8.8-1.1,17.9-0.1,26.8c1,8.7,2.9,15.9,8.5,23c6.8,8.7,16.7,15.4,27.8,17.2
				C2511.4,1841.3,2528.6,1824.5,2524.4,1805z M2507.4,1824.1c-15,11.5-37.3-6.1-40.2-21.6c-1.4-7.4-1.6-15.1-1.4-22.6
				c0.1-3.5,0.5-7,1.4-10.4c0.3-1.4,0.8-2.6,1.5-3.8c0.6-1,0.4-0.7,0.9-0.9c0.8-0.2,1.5-0.7,2.1-1.2c11.4,6.5,21.8,15.1,30.5,24.7
				C2511,1798,2520.8,1813.9,2507.4,1824.1z"/>
		</g>
	</g>
	<g>
		<g>
			<ellipse fill="#B8DDDF" cx="922.5" cy="2233.7" rx="262.4" ry="40.1"/>
			<g>
				<path fill="#FFFFFF" d="M1040.9,2178.7c-2.2-6.6-7.6-11.1-14.1-13.4c-7.1-2.5-15.6,0-22.6,1.4c-16.6,3.5-33.1,10.1-45.9,21.5
					c-4.3,3.8,0,9.6,4.6,9.2c0.6,0.9,1.6,1.6,3,2.1c5.2,1.8,10.7,2,16.1,2.9c5,0.8,9.6,2.6,14.7,3.2c6,0.7,12.7,0.2,18.7,0
					c8.8-0.3,23-1.6,25.6-10.9C1043.5,2190.3,1042.3,2182.8,1040.9,2178.7z"/>
				<path fill="#333333" d="M948,2200.8c0.1-0.1,0.2-0.2,0.3-0.3c12.5,5.4,26.6,8.4,40,10.3c15.4,2.1,35.5,4.4,49.3-4.6
					c12-7.8,14.9-25.5,8.2-38c-6.5-12.1-21-13.3-33.2-11.4c-15.3,2.4-30,8.8-43.5,16c-5.2,2.8-11,5.9-16.4,9.4v-195.4
					c0-7.1-11-7.1-11,0v204.5c-0.5,0.5-0.9,1.1-1.4,1.6C935.8,2198.5,943.5,2206.3,948,2200.8z M957.7,2192.5
					c2.3-1.5,4.6-2.9,6.9-4.3c9-5.5,18.5-10.5,28.4-14.3c10.4-4,27.1-10.2,37.3-5.4c4.6,2.1,6.7,5.4,7.5,10.9
					c0.8,5.5,0.3,12.3-4,16.1c-4.6,4-11.5,5.3-17.4,5.8c-8.3,0.6-16.8,0.2-25.1-1C980.3,2198.6,968.2,2196.3,957.7,2192.5z"/>
			</g>
			<g>
				<path fill="#FFFFFF" d="M897.7,2206.3c-2.2-6.6-7.6-11.1-14.1-13.4c-7.1-2.5-15.6,0-22.6,1.4c-16.6,3.5-33.1,10.1-45.9,21.5
					c-4.3,3.8,0,9.6,4.6,9.2c0.6,0.9,1.6,1.6,3,2.1c5.2,1.8,10.7,2,16.1,2.9c5,0.8,9.6,2.6,14.7,3.2c6,0.7,12.7,0.2,18.7,0
					c8.8-0.3,23-1.6,25.6-10.9C900.4,2218,899.1,2210.5,897.7,2206.3z"/>
				<path fill="#333333" d="M804.9,2228.5c0.1-0.1,0.2-0.2,0.3-0.3c12.5,5.4,26.6,8.4,40,10.3c15.4,2.1,35.5,4.4,49.3-4.6
					c12-7.8,14.9-25.5,8.2-38c-6.5-12.1-21-13.3-33.2-11.4c-15.3,2.4-30,8.8-43.5,16c-5.2,2.8-11,5.9-16.4,9.4v-195.4
					c0-7.1-11-7.1-11,0v204.5c-0.5,0.5-0.9,1.1-1.4,1.6C792.6,2226.2,800.3,2234,804.9,2228.5z M814.5,2220.2
					c2.3-1.5,4.6-2.9,6.9-4.3c9-5.5,18.5-10.5,28.4-14.3c10.4-4,27.1-10.2,37.3-5.4c4.6,2.1,6.7,5.4,7.5,10.9
					c0.8,5.5,0.3,12.3-4,16.1c-4.6,4-11.5,5.3-17.4,5.8c-8.3,0.6-16.8,0.2-25.1-1C837.1,2226.3,825,2224,814.5,2220.2z"/>
			</g>
			<g>
				<g id="XMLID_1_">
					<path fill="#FFCA73" d="M1124.2,1065.5c38.3,26.7,66,73.7,59.5,121.6c-3.5,25.5-18.1,47.9-26.9,71.6
						c-7.9,21.2-9.9,43.2-10.1,65.7c-0.2,15.4,0.5,30.8,0.8,46.2c0.2,16.3,0.1,32.7,0,49c-0.2,32.1-0.1,64.3,3.4,96.3
						c7,62,19.1,123.3,20.9,185.8c0.8,26,0.3,52.7-5.5,78.1c-4.3,19-11.9,36.9-22.2,53.4c-20.2,32.4-50.9,56.7-83.8,75.3
						c-35.2,20-73.6,33.9-112.3,45.7c-19.2,5.8-38.5,11.1-57.9,16.1c-21.6,5.6-43.4,10.4-65,16c-54.4,14.1-114.2,36-169.1,11.9
						c-19-8.4-35.3-21.4-46-39.4c-9.9-16.5-14.2-35.6-17-54.5c-3-20.7-3.7-41.6-5.7-62.5c-3.1-33-5.4-66.2-7.3-99.3
						c-3.7-64-5.7-128-7.7-192c-1.2-39.4,2.5-78.9,0.7-118.3c-0.9-19.9-2.9-40-8.1-59.2c-4.3-15.9-11.5-32-24-43.1
						c-4.9-4.3-12,2-8.8,6.7c-14-6.7-24.2-20-31.7-33.7c-9.8-17.8-17.4-39.6-18.5-60c-2.5-44.9,27.5-80,61.7-105
						c17.9-13.1,37.1-24.1,56.6-34.6c21.7-11.6,43.9-21.8,66.9-30.5c51-19.3,104.5-32,158.4-39.9c53.7-7.8,108.3-10.4,162.5-7
						c24.4,1.6,49.2,3.8,72.9,10.1C1083.4,1042.4,1105,1052.2,1124.2,1065.5z"/>
					<path fill="#EBB06C" d="M1212.4,1082c19.8,30.1,27.6,67.4,21.4,102.9c-4.6,25.8-16.5,49.4-33.5,68.9c-2.8-0.1-5.7,1.7-5.7,5.3
						c0,0.3,0,0.6,0,0.9c-2.4,2.5-4.8,4.9-7.4,7.2c-5.2,4.8,2.5,12.5,7.7,7.8c0.6,15.7,2,31.5,3.4,47.1c2.6,29.1,5.6,58.2,8.4,87.2
						c6.8,69.8,12.6,139.8,13.6,209.9c0.9,64.9-1.2,132-19.4,194.8c-13,44.7-38,90.9-85.9,103.1c-1.4,0.4-2.9,0.7-4.3,1
						c-0.1-0.3-0.1-0.6-0.2-0.9c-2.3,0.7-4.7,1.4-7,2.2c-0.8,0.1-1.6,0.2-2.5,0.3c-1.4,0.2-2.5,0.7-3.4,1.5
						c-23.5,7.6-46.7,16.4-69.9,24.6c-29.4,10.3-58.8,20.6-88.3,30.5c-36.2,12.1-72.8,23.5-109.7,33.4c-1-2.2-3.2-3.7-6.2-2.7
						c-17.4,5.8-34.8,11.5-52.4,16.9c-4,0.9-8.1,1.7-12.1,2.5c-27.7,5.6-55.9,10.8-84.1,12.4c-17.9,1-36,0-53.2-5
						c-27.1-7.8-47.2-26.6-59.1-51.9c-12.9-27.4-16.1-58.9-17.3-88.8c-1.4-34.3,0.5-68.6,2-102.9c0.7-16.4,1.3-32.8,1.4-49.2
						c0.1-27.1-1.6-54.3-2.2-81.5c-0.8-32.5-1.3-65-2.1-97.4c-0.8-29.9-1.5-59.9-4.6-89.8c-1.4-13-3.5-25.9-7.4-38.4
						c-1.9-6.2-4.4-12.2-7.1-18.1c-3-6.6-6.6-14.1-11.4-19.7c-7.8-9.2-17.4-16.8-26.3-24.9c-4.3-3.9-8.8-8.1-12.6-12.8
						c1.9-2,2.5-5-0.1-7.3c-15.5-13.5-25.9-33.6-33.6-52.3c-9.7-23.3-14.8-47.7-11.9-72.9c2.5-22.2,10.6-43.3,23.3-61.6
						c11.9-17.1,28.1-31,45-42.9c18.1-12.7,37.6-23.4,57.1-33.8c22.7-12.2,45.5-23.6,69.4-33.3c34.8-14,70.9-24.9,107.5-33.1
						c2.6-0.6,5.2-1.1,7.8-1.7c15.4-3.3,30.8-6.1,46.3-8.6c55.9-8.7,112.7-11.6,169.2-10c54.6,1.5,109.9,6.9,163.4,18.1
						C1156.6,1027.2,1190.8,1049.3,1212.4,1082z M1189.6,1208.9c15.9-45.9-2.3-97.6-34.8-131.5c-32.6-34-78.4-51.8-124.3-57.9
						c-52.5-7-105.9-7.1-158.6-2.6c-104.2,9-207,36.3-297.9,88.7c-36.7,21.1-75.1,47.8-93.4,87.5c-18.3,39.8-8.1,86.3,14.2,122.5
						c10.5,17.1,26.2,32.5,46.7,35.9c0.9,0.2,1.8,0.1,2.5-0.1c5.4,8.9,8.9,19.2,11.4,29.3c5,19.9,6.3,40.6,6.9,61
						c1.2,39.5-2,79-0.7,118.5c2.1,66.2,4.2,132.5,8.3,198.6c2,31.5,4.8,62.8,7.3,94.2c1.6,20.6,2.8,41.3,6.3,61.7
						c3.2,18.9,8.9,37.6,19.4,53.8c11.4,17.8,28.4,30.8,47.6,39.5c54.2,24.5,113.1,6.5,167.3-8.1c22.7-6.1,45.6-11.1,68.4-17
						c19.3-5,38.6-10.1,57.7-15.8c39-11.5,77.6-25.3,113.6-44.4c34-18,65.4-41.6,88.4-72.7c11.5-15.4,20.2-32.8,26.3-51
						c7.3-21.9,9.7-44.9,10.5-67.9c2.2-62.3-8.8-124.3-17-185.8c-4.2-31.5-7-62.8-7.3-94.6c-0.3-32.6,0.7-65.3-0.4-97.9
						c-0.8-24.3-1.6-49.5,3.9-73.3C1167.6,1254.8,1181.3,1232.9,1189.6,1208.9z"/>
					<path fill="#D39A53" d="M611.7,2042.1c17.9,6.6,36.9,8.6,56,8.2c-29,5.1-58.9,7.4-87.7,1.7c-16.3-3.3-31.6-9.5-45-19.4
						c-14.3-10.6-24.7-25.7-32-41.8c-10.7-23.6-14.1-50.3-16.7-75.8c-3.2-31.6-3.3-63.5-2.1-95.2c2.4-65,10.4-129.6,12.3-194.5
						c0.9-31.9,0-63.8-2.9-95.6c-2.3-25.1-7.3-49.6-19.4-71.9c-12.8-23.7-32.6-42.8-50.4-62.7c-9.1-10.3-17.8-20.9-24.7-32.8
						c-6.5-11.2-9.9-23.3-12.2-36c-9.3-51,4.4-107,30.1-151.3c41.1-71.1,116.6-105.1,193-126c-18.6,8-36.8,16.9-54.7,26.5
						c-19.6,10.5-39.2,21-57.8,33.3c-36.1,24-65.7,56-76,99.1c-7,29.1-4.1,57.9,5.9,85.9c4.9,13.7,11.2,26.9,18.8,39.3
						c3.2,5.3,6.8,10.6,10.8,15.6c7.2,22.5,30,35.5,45.5,51.7c9.4,9.8,15.2,24.3,19.2,37c4,12.5,6,25.6,7.3,38.6
						c3,30.1,3.6,60.3,4.4,90.5c0.8,32.5,1.4,65,2.1,97.4c0.6,26.5,2.2,53,2.1,79.5c-0.1,16.5-0.8,32.9-1.5,49.3
						c-1.5,34.2-3.3,68.6-1.8,102.8c1.3,30.9,5.3,62.4,18,90.8C564.1,2012.1,584.7,2032.1,611.7,2042.1z"/>
					<path fill="#333333" d="M1217.5,1070.1c21.4,29.5,32.1,66.8,28.8,103.2c-3.2,34.3-17.7,65.9-40.7,91.1
						c0.1,4.1,0.2,8.2,0.4,12.3c2.6,55.2,9.8,110.2,14.8,165.2c6.4,70.6,11.6,141.6,10.5,212.6c-0.5,33.9-2.4,67.8-7.1,101.4
						c-4.1,28.9-10.1,58-20.9,85.2c-9,22.7-21.2,45-39.5,61.6c-15.7,14.3-34.6,23.3-55.3,26.8c-3.8,1.2-7.6,2.4-11.4,3.7
						c-58.8,20-117.1,41.4-176.1,60.5c-49,15.9-98.6,30.3-149,41c-13.6,4.1-27.3,8.1-41,11.9c-25.4,7-51.2,13.1-77.3,16.6
						c-35,4.6-72.8,5-105.5-10.3c-35.1-16.4-56-49.8-64.8-86.6c-7-29.1-9.6-59.6-10.5-89.5c-1-32,0.2-64,2.3-96
						c4.2-64.9,11.7-129.8,10.5-195c-0.3-16.1-1.2-32.2-2.5-48.2c-1-13.1-2.4-26.2-5.3-39c-5.9-25.6-18.6-47.2-35.6-67
						c-17.6-20.5-38.2-39.3-51.9-62.8c-12.9-22.1-17.2-48.3-17.2-73.6c0-51,16.2-104.9,47.2-145.8c29.3-38.6,69.3-67.4,113.6-86.6
						c58.1-25.3,120.1-36,181.6-49c11-2.7,22.1-5.2,33.2-7.4c19.8-4.7,39.5-9.9,58.9-16.3c0.3-0.1,0.7-0.2,1.1-0.3
						c2.4-0.7,4.3,0.2,5.4,1.8c0.9,1.2,1.3,2.8,1.1,4.3c46.9-5.5,94.4-7.2,141.4-5.8c54.6,1.7,109.9,6.9,163.4,18.2
						C1158.9,1016.5,1194.1,1037.8,1217.5,1070.1z M1233.8,1184.9c6.3-35.5-1.5-72.8-21.4-102.9c-21.6-32.7-55.8-54.8-94-62.8
						c-53.5-11.2-108.8-16.5-163.4-18.1c-56.5-1.6-113.3,1.3-169.2,10c-15.5,2.4-31,5.3-46.3,8.6c-2.6,0.6-5.2,1.1-7.8,1.7
						c-36.6,8.2-72.7,19.1-107.5,33.1c-23.9,9.6-46.7,21.1-69.4,33.3c-19.5,10.5-39,21.1-57.1,33.8c-17,11.9-33.1,25.8-45,42.9
						c-12.7,18.3-20.8,39.4-23.3,61.6c-2.9,25.2,2.2,49.6,11.9,72.9c7.8,18.6,18.2,38.8,33.6,52.3c2.7,2.3,2.1,5.4,0.1,7.3
						c3.8,4.7,8.2,8.8,12.6,12.8c8.9,8.1,18.5,15.7,26.3,24.9c4.7,5.6,8.3,13,11.4,19.7c2.7,5.9,5.2,11.9,7.1,18.1
						c3.9,12.5,6,25.4,7.4,38.4c3.1,29.8,3.8,59.8,4.6,89.8c0.8,32.5,1.4,65,2.1,97.4c0.6,27.1,2.3,54.3,2.2,81.5
						c-0.1,16.4-0.7,32.8-1.4,49.2c-1.5,34.2-3.4,68.6-2,102.9c1.2,29.9,4.4,61.4,17.3,88.8c11.9,25.2,32,44.1,59.1,51.9
						c17.3,5,35.4,6,53.2,5c28.2-1.6,56.5-6.8,84.1-12.4c4.1-0.8,8.1-1.7,12.1-2.5c17.6-5.4,35-11.1,52.4-16.9c3-1,5.2,0.5,6.2,2.7
						c36.9-9.9,73.4-21.3,109.7-33.4c29.5-9.9,58.9-20.2,88.3-30.5c23.2-8.1,46.4-17,69.9-24.6c0.9-0.8,2-1.4,3.4-1.5
						c0.8-0.1,1.6-0.2,2.5-0.3c2.3-0.7,4.7-1.5,7-2.2c0.1,0.3,0.1,0.6,0.2,0.9c1.4-0.3,2.9-0.6,4.3-1
						c47.9-12.2,72.9-58.4,85.9-103.1c18.2-62.7,20.3-129.9,19.4-194.8c-0.9-70.1-6.8-140.1-13.6-209.9c-2.8-29.1-5.8-58.1-8.4-87.2
						c-1.4-15.7-2.8-31.4-3.4-47.1c-5.2,4.7-13-3-7.7-7.8c2.6-2.3,5-4.7,7.4-7.2c0-0.3,0-0.6,0-0.9c0-3.6,2.9-5.4,5.7-5.3
						C1217.2,1234.3,1229.2,1210.7,1233.8,1184.9z M667.7,2050.3c-19.1,0.4-38.1-1.6-56-8.2c-27-10-47.7-29.9-59.4-56.1
						c-12.7-28.4-16.7-60-18-90.8c-1.5-34.3,0.4-68.6,1.8-102.8c0.7-16.4,1.4-32.9,1.5-49.3c0.1-26.5-1.5-53-2.1-79.5
						c-0.8-32.5-1.3-65-2.1-97.4c-0.8-30.2-1.4-60.4-4.4-90.5c-1.3-13-3.3-26.1-7.3-38.6c-4.1-12.8-9.8-27.2-19.2-37
						c-15.5-16.2-38.3-29.2-45.5-51.7c-4-5-7.5-10.2-10.8-15.6c-7.6-12.4-13.9-25.6-18.8-39.3c-10-28-12.8-56.8-5.9-85.9
						c10.3-43.1,39.9-75.1,76-99.1c18.5-12.3,38.2-22.9,57.8-33.3c17.9-9.6,36-18.5,54.7-26.5c-76.4,21-151.9,54.9-193,126
						c-25.6,44.3-39.4,100.4-30.1,151.3c2.3,12.6,5.8,24.8,12.2,36c6.9,11.9,15.6,22.6,24.7,32.8c17.7,19.9,37.6,39,50.4,62.7
						c12.1,22.3,17.1,46.8,19.4,71.9c2.9,31.8,3.9,63.7,2.9,95.6c-1.9,65-9.9,129.6-12.3,194.5c-1.1,31.7-1.1,63.6,2.1,95.2
						c2.6,25.5,6,52.2,16.7,75.8c7.3,16.1,17.7,31.2,32,41.8c13.4,9.9,28.7,16.2,45,19.4C608.8,2057.7,638.7,2055.4,667.7,2050.3z"
						/>
					<path fill="#333333" d="M1154.8,1077.3c32.5,33.9,50.6,85.7,34.8,131.5c-8.3,24-22,45.9-27.8,70.8c-5.6,23.8-4.7,49-3.9,73.3
						c1.1,32.6,0.1,65.3,0.4,97.9c0.3,31.8,3.1,63.1,7.3,94.6c8.3,61.5,19.2,123.5,17,185.8c-0.8,23-3.1,46-10.5,67.9
						c-6.1,18.2-14.9,35.5-26.3,51c-23.1,31.1-54.4,54.7-88.4,72.7c-36,19.1-74.6,32.8-113.6,44.4c-19.1,5.7-38.4,10.8-57.7,15.8
						c-22.8,5.9-45.7,10.9-68.4,17c-54.3,14.6-113.1,32.6-167.3,8.1c-19.1-8.7-36.1-21.7-47.6-39.5c-10.5-16.2-16.2-34.9-19.4-53.8
						c-3.5-20.4-4.7-41.1-6.3-61.7c-2.5-31.4-5.4-62.8-7.3-94.2c-4.1-66.2-6.2-132.4-8.3-198.6c-1.2-39.5,1.9-79,0.7-118.5
						c-0.6-20.4-2-41.1-6.9-61c-2.5-10.1-5.9-20.4-11.4-29.3c-0.8,0.2-1.6,0.3-2.5,0.1c-20.5-3.4-36.2-18.9-46.7-35.9
						c-22.3-36.2-32.5-82.7-14.2-122.5c18.2-39.6,56.7-66.3,93.4-87.5c90.9-52.4,193.7-79.7,297.9-88.7
						c52.8-4.5,106.1-4.4,158.6,2.6C1076.4,1025.5,1122.3,1043.3,1154.8,1077.3z M1183.6,1187.1c6.6-47.9-21.2-94.9-59.5-121.6
						c-19.2-13.4-40.7-23.2-63.3-29.2c-23.7-6.3-48.4-8.6-72.9-10.1c-54.1-3.4-108.8-0.9-162.5,7c-53.9,7.9-107.4,20.6-158.4,39.9
						c-23,8.7-45.3,18.8-66.9,30.5c-19.5,10.5-38.8,21.5-56.6,34.6c-34.2,25.1-64.2,60.1-61.7,105c1.1,20.4,8.8,42.2,18.5,60
						c7.5,13.7,17.6,27,31.7,33.7c-3.2-4.7,3.9-11,8.8-6.7c12.6,11.1,19.7,27.2,24,43.1c5.2,19.2,7.2,39.3,8.1,59.2
						c1.8,39.5-2,78.9-0.7,118.3c2,64,4,128,7.7,192c1.9,33.1,4.3,66.3,7.3,99.3c1.9,20.8,2.6,41.8,5.7,62.5
						c2.8,18.8,7.2,38,17,54.5c10.7,17.9,27,31,46,39.4c54.9,24.1,114.6,2.2,169.1-11.9c21.6-5.6,43.4-10.4,65-16
						c19.4-5.1,38.7-10.3,57.9-16.1c38.7-11.8,77.1-25.7,112.3-45.7c32.9-18.7,63.5-43,83.8-75.3c10.3-16.5,17.8-34.5,22.2-53.4
						c5.8-25.4,6.3-52.1,5.5-78.1c-1.9-62.5-13.9-123.8-20.9-185.8c-3.6-32-3.6-64.1-3.4-96.3c0.1-16.3,0.2-32.7,0-49
						c-0.2-15.4-0.9-30.8-0.8-46.2c0.3-22.5,2.2-44.5,10.1-65.7C1165.5,1235,1180.1,1212.6,1183.6,1187.1z"/>
				</g>
				<path fill="#D39A53" d="M678,1841.7c-7.1,0-7.1,11,0,11S685.1,1841.7,678,1841.7z"/>
				<path fill="#D39A53" d="M960,1805.7c-3,0-5.5,2.5-5.5,5.5v6c0,3,2.5,5.5,5.5,5.5s5.5-2.5,5.5-5.5v-6
					C965.5,1808.2,963,1805.7,960,1805.7z"/>
				<path fill="#D39A53" d="M794.5,1694.2c0-1.3-0.5-2.6-1.3-3.5c-0.9-1.2-2.3-2-4.2-2h-3c-3,0-5.5,2.5-5.5,5.5s2.5,5.5,5.5,5.5h3
					c1.9,0,3.3-0.8,4.2-2C794,1696.8,794.5,1695.5,794.5,1694.2z"/>
				<path fill="#D39A53" d="M1004.5,1667.2c0-2.9-2.5-5.6-5.5-5.5c-2.5,0.1-4.4,1-6.3,2.5c-0.2,0.2-0.4,0.4-0.6,0.6
					c-2.6,0.5-4.6,2.6-4.6,5.4c0,2.9,2.5,5.6,5.5,5.5c2.5-0.1,4.4-1,6.3-2.5c0.2-0.2,0.4-0.4,0.6-0.6
					C1002.5,1672.1,1004.5,1669.9,1004.5,1667.2z"/>
				<path fill="#D39A53" d="M1080,1583.7h-3c-3,0-5.5,2.5-5.5,5.5s2.5,5.5,5.5,5.5h3c3,0,5.5-2.5,5.5-5.5S1083,1583.7,1080,1583.7z"
					/>
				<path fill="#D39A53" d="M771.9,1498.3c-2.1-2.1-5.7-2.1-7.8,0c-1,1-2,2-3,3c-2.1,2.1-2.1,5.7,0,7.8c2.1,2.1,5.7,2.1,7.8,0
					c1-1,2-2,3-3C774,1503.9,774,1500.4,771.9,1498.3z"/>
				<path fill="#D39A53" d="M591,1670.7c-7.1,0-7.1,11,0,11S598,1670.7,591,1670.7z"/>
				<path fill="#D39A53" d="M993.9,1486.3c-2.6-2.7-4.3-4.3-4.4-8.1c-0.2-7.1-11.2-7.1-11,0c0.2,6.6,3.1,11.4,7.6,15.9
					C991.1,1499.1,998.9,1491.3,993.9,1486.3z"/>
				<path fill="#D39A53" d="M783,1376.7h-3c-3,0-5.5,2.5-5.5,5.5s2.5,5.5,5.5,5.5h3c3,0,5.5-2.5,5.5-5.5S786,1376.7,783,1376.7z"/>
				<path fill="#D39A53" d="M579,1265.6c-7.1,0-7.1,11,0,11S586,1265.6,579,1265.6z"/>
				<path fill="#D39A53" d="M606,1145.6c-7.1,0-7.1,11,0,11S613,1145.6,606,1145.6z"/>
				<path fill="#D39A53" d="M794.5,1082.1c0-3-2.5-5.5-5.5-5.5c-1.6,0-3,0.5-4.4,1.2c-2.7,1.4-4.1,4.4-4.1,7.3
					c-0.1,3,2.5,5.5,5.5,5.5c2.3,0,4.2-1.4,5.1-3.4C793,1086.4,794.5,1084.4,794.5,1082.1z"/>
				<path fill="#D39A53" d="M963,1067.6c-7.1,0-7.1,11,0,11S970.1,1067.6,963,1067.6z"/>
				<path fill="#D39A53" d="M770.5,1208.1c0-2.9-2.5-5.6-5.5-5.5c-2.5,0.1-4.4,1-6.3,2.5c-0.2,0.2-0.4,0.4-0.6,0.6
					c-2.6,0.5-4.6,2.6-4.6,5.4c0,2.9,2.5,5.6,5.5,5.5c2.5-0.1,4.4-1,6.3-2.5c0.2-0.2,0.4-0.4,0.6-0.6
					C768.4,1213,770.5,1210.9,770.5,1208.1z"/>
				<path fill="#D39A53" d="M1002.8,1220.6H999c-3,0-5.5,2.5-5.5,5.5s2.5,5.5,5.5,5.5h3.8c3,0,5.5-2.5,5.5-5.5
					S1005.8,1220.6,1002.8,1220.6z"/>
				<path fill="#D39A53" d="M1085.1,1173.1c-0.8-2-2.8-3.4-5.1-3.4c-3,0-5.5,2.5-5.5,5.5c0,1.6,0.5,3,1.2,4.4
					c1.4,2.7,4.4,4.1,7.3,4.1c3,0.1,5.5-2.5,5.5-5.5C1088.5,1175.8,1087.1,1173.9,1085.1,1173.1z"/>
				<path fill="#D39A53" d="M1097.5,1382.2c0-3-2.5-5.5-5.5-5.5c-1.6,0-3,0.5-4.4,1.2c-2.7,1.4-4.1,4.4-4.1,7.3
					c-0.1,3,2.5,5.5,5.5,5.5c2.3,0,4.2-1.4,5.1-3.4C1096.1,1386.4,1097.5,1384.4,1097.5,1382.2z"/>
				<path fill="#D39A53" d="M664.2,1507.5c-1.5-2.4-4.2-3.5-7-2.9c-1.6,0.4-3.1,1.5-4.2,2.6c-2.1,2.1-2.1,5.7,0,7.8
					c0.5,0.5,1.2,0.9,1.8,1.2c0.8,2,2.8,3.4,5.1,3.4c3,0,5.5-2.5,5.5-5.5C665.5,1511.9,665.5,1509.4,664.2,1507.5z"/>
				<path fill="#D39A53" d="M929.5,1553.2c0.2-3-2.6-5.5-5.5-5.5c-3.1,0-5.3,2.5-5.5,5.5c0.1-1.4-0.4,0.9-0.1,0.4
					c-0.3,0.8-0.8,1.6-1.1,2.3c-1,2.1-1.6,4-1.8,6.3c-0.2,3,2.6,5.5,5.5,5.5c3.1,0,5.3-2.5,5.5-5.5c-0.1,1.4,0.4-0.9,0.1-0.4
					c0.3-0.8,0.8-1.6,1.1-2.3C928.7,1557.4,929.4,1555.5,929.5,1553.2z"/>
				<path fill="#D39A53" d="M840,1871.7h-3c-3,0-5.5,2.5-5.5,5.5s2.5,5.5,5.5,5.5h3c3,0,5.5-2.5,5.5-5.5S843,1871.7,840,1871.7z"/>
				<path fill="#D39A53" d="M1092,1769.7c-7.1,0-7.1,11,0,11S1099.1,1769.7,1092,1769.7z"/>
				<path fill="#D39A53" d="M729.9,1951.3c-2.1-2.1-5.7-2.1-7.8,0c-1,1-2,2-3,3c0,0,0,0,0,0c-0.3,0.3-0.6,0.6-0.8,0.8
					c-2.1,2.1-2.1,5.7,0,7.8c2.1,2.1,5.6,2.1,7.8,0c0.3-0.3,0.6-0.6,0.8-0.8c1-1,2-2,3-3C732,1957,732,1953.4,729.9,1951.3z"/>
				<g>
					
						<ellipse transform="matrix(0.9959 -9.045033e-02 9.045033e-02 0.9959 -117.0063 99.2943)" fill="#F39DA3" cx="1037" cy="1340.6" rx="40.7" ry="31.6"/>
					
						<ellipse transform="matrix(0.9959 -9.045219e-02 9.045219e-02 0.9959 -114.6953 101.4976)" fill="#FFFFFF" cx="1062.5" cy="1316.2" rx="19" ry="12.4"/>
					<path fill="#333333" d="M1016.7,1291.3c-4.1-5.8-13.1,0.6-9,6.4c9.4,13.4-6.9,27.5-20.3,26.2c-12.2-1.2-11.1-15.8-12.5-25
						c-1.1-7-12-6-11,1c1.2,7.9,1.2,16.5,5,23.6c4.5,8.7,13,11.3,22.2,11.4C1012.8,1335.2,1029.7,1309.7,1016.7,1291.3z"/>
				</g>
				<g>
					
						<ellipse transform="matrix(-0.9836 0.1805 -0.1805 -0.9836 1632.7668 2673.3843)" fill="#F39DA3" cx="694.7" cy="1411" rx="40.7" ry="31.6"/>
					
						<ellipse transform="matrix(-0.9836 0.1805 -0.1805 -0.9836 1568.134 2645.8906)" fill="#FFFFFF" cx="663.7" cy="1394.3" rx="19" ry="12.4"/>
					<path fill="#333333" d="M701,1358.1c2.4-6.7,12.7-2.9,10.3,3.7c-5.5,15.4,14.1,24.6,26.5,19.7c11.4-4.4,6.5-18.2,5.3-27.4
						c-0.9-7,10-9,10.8-2c1,7.9,3.2,16.2,1.5,24.1c-2,9.5-9.4,14.4-18.3,17C716.6,1399.3,693.5,1379.2,701,1358.1z"/>
				</g>
				<g>
					<path fill="#F39DA3" d="M810.6,1477.7c3.8,21.1,17.1,38.4,37.1,46.7c51.4,21.4,134.9-11.8,135.4-73.9c1.5-3.5-0.8-8.8-5.8-7.9
						l-158.9,27.7c-1,0.2-1.8,0.6-2.5,1.1C812.8,1471.6,809.9,1473.8,810.6,1477.7z"/>
					<path fill="#333333" d="M810.6,1477.7c3.8,21.1,17.1,38.4,37.1,46.7c51.4,21.4,134.9-11.8,135.4-73.9c1.5-3.5-0.8-8.8-5.8-7.9
						l-158.9,27.7c-1,0.2-1.8,0.6-2.5,1.1C812.8,1471.6,809.9,1473.8,810.6,1477.7z M869,1519.1c5.9-6.5,16.6-13.4,24.7-9
						c2.9,1.6,5.5,1.1,7.7-1.3c4-4.5,12.5-4.6,17.9-4.1c3.7,0.4,8.2,1,11.8,2.7C912.2,1516.9,889.2,1521.7,869,1519.1z
						 M822.5,1480.8l149.2-26c-1.2,11.7-5.8,22.5-13.4,31.7c-4.5,5.4-10.2,10.4-16.7,14.8c-11.6-9.7-33.6-11.1-45.8-1.9
						c-14-4.5-29.4,4.5-37.8,15.9c-0.3,0.5-0.6,0.9-0.8,1.4C840.8,1511.4,827.7,1500.2,822.5,1480.8z"/>
				</g>
			</g>
		</g>
		<g>
			<path fill="#FFFFFF" d="M1423.8,1667.1c-4.2-3.1-8.6-5.8-13-8.4c-3.1-1.8-6.3-3.3-9.6-4.7c-4.3-2.6-8.8-5-13.8-6.3
				c-2.3-0.6-4.3,0.3-5.5,1.8c-3.4-1.2-7.5,0.5-7,4.9c0.8,7.4,1,14.2,4.1,21.2c2.7,6,6.7,12,11.4,16.7c8.8,8.7,22.4,10.2,33.7,6
				c4.8-1.8,9.7-4.7,11.9-9.5c1-0.9,1.7-2.2,1.8-3.9C1438,1675.8,1431,1670.8,1423.8,1667.1z"/>
			<path fill="#333333" d="M1430.5,1661.6c-13-10.1-29.2-17.9-45.6-20.4c-3.6-0.6-7.2-0.9-10.9-0.6c-0.8,0.1-1.5,0.3-2.1,0.6
				c-30.3-19.6-60.3-39.8-87.1-64c-26.2-23.7-55-55.5-55.3-93.1c-0.1-7.1-11.1-7.1-11,0c0.3,39.8,28.8,73.3,56.5,99
				c27.7,25.7,59.3,46.8,91,67.4c-0.2,0.5-0.4,1.1-0.4,1.7c-2,20.9,9.4,43.3,27.9,53.3c9.8,5.3,20.7,5.7,31.3,2.6
				c7.6-2.2,15.5-5.8,19.9-12.7C1452.8,1682.7,1439.8,1668.8,1430.5,1661.6z M1434.9,1690.3c-1.8,2.3-4.4,3.7-6.9,4.9
				c-8.1,4-17.2,5-25.8,2.1c-16.9-5.8-26.5-26.1-25.8-43.2c1-0.6,1.8-1.5,2.4-2.6c11.6,0.4,23.4,5.7,33.3,11.1
				c6.1,3.4,11.9,7.3,16.9,12.2c3.3,3.2,6.8,7.9,7.1,11.5C1436.1,1687.7,1435.9,1689,1434.9,1690.3z"/>
		</g>
		<g>
			<path fill="#FFFFFF" d="M397.2,1831.9c15.1,2.2,29.5-4.8,35.6-19.2c3.2-7.5,4.9-15.4,3.9-23.6c-0.9-7.5-3.6-15.3-3.4-22.9
				c1.8-4.3-4.6-9.5-9.4-5.8c-7.6,5.9-14.8,12.3-21.5,19.2c-6.1,6.1-12.8,12.4-17.8,19.5C376.4,1810.5,382.3,1829.7,397.2,1831.9z"
				/>
			<path fill="#333333" d="M407.5,1838.2c11-1.7,20.9-8.5,27.8-17.2c5.6-7.1,7.5-14.2,8.5-23c1-8.9,1.3-17.9-0.1-26.8
				c-0.7-4.5-2.1-9.5-5-13c5.9-9.5,9.9-20.1,13.3-30.7c4.3-12.9,8.8-25.7,13.9-38.3c10.7-27.1,19.7-54.3,26.9-82.6
				c5.9-23,10.8-46.2,16.6-69.2c2.2-8.8,4.3-17.7,5.1-26.7c0.6-6.6,0.8-14.6-4.1-19.7c-5-5.1-6.8,20.7-7.6,25
				c-1.4,8.3-3.4,16.4-5.6,24.6c-6.3,23.4-10.7,47.2-17,70.6c-7.1,26.9-16.2,52.7-26.4,78.6c-4.7,12-8.8,24.2-13,36.4
				c-2.8,8.3-5.9,16.5-10.3,24.1c-0.7,0-1.5,0.2-2.2,0.6c-6.8,3.2-13.2,7.4-19.2,12c-13.7,10.3-30.4,24.5-34.2,42.2
				C370.7,1824.5,387.9,1841.3,407.5,1838.2z M397.1,1788.4c8.7-9.6,19.1-18.3,30.5-24.7c0.6,0.6,1.3,1,2.1,1.2
				c0.5,0.1,0.4-0.1,0.9,0.9c0.7,1.2,1.2,2.5,1.5,3.8c0.9,3.4,1.3,6.9,1.4,10.4c0.3,7.5,0,15.2-1.4,22.6
				c-2.9,15.5-25.2,33.1-40.2,21.6C378.6,1813.9,388.3,1798,397.1,1788.4z"/>
		</g>
	</g>
	<g>
		<text transform="matrix(1 0 0 1 929.4912 724.4355)"><tspan x="0" y="0" fill="#333333" font-family="'MountainsofChristmas-Bold'" font-size="243.5511">best f</tspan><tspan x="508.7" y="0" fill="#333333" font-family="'MountainsofChristmas-Bold'" font-size="243.5511" letter-spacing="-1">r</tspan><tspan x="607.5" y="0" fill="#333333" font-family="'MountainsofChristmas-Bold'" font-size="243.5511">iends</tspan></text>
		<path fill="#333333" d="M880.9,669.8c-11.5,4.2-27.2,5.2-39.6,0.7c5.7-8.5,6.7-20.2,2.3-29.4c-4.1-8.5-14.2-6.5-20.1-1.6
			c-7,5.8-8.4,15.6-5.7,23.8c1,3,2.5,5.7,4.5,7.9c-7.3,1.7-16.2,0.1-22.8-4.1c0.2-0.3,0.4-0.6,0.6-0.8c3.5-4.8,5.3-11.1,3.7-16.9
			c-2-7.1-9.3-10.5-15.9-11.6c-3.1-0.5-5.7,0.8-6.8,3.8c-3.5,9.9-1.8,18.6,2.8,25.4c-5.9,4-13.3,5.7-20.4,4.3
			c-3.5-0.7-6.6-2.2-9.2-4.3c6.6-6.5,10.6-15.4,9.5-26c-0.3-2.4-1.5-4.7-4-5.3c-12.7-2.9-23.4,4.2-23.6,17.6c0,4.1,0.9,8,2.6,11.5
			c-1.5,0.8-3.1,1.4-4.8,1.9c-10.9,3.4-24.2,0.6-28.4-11.2c-0.7-2-2.1-3.2-3.7-3.7c-2.3-1.1-5-0.7-6.3,2.3c-0.8,1.8-1.7,3.6-1.6,5.7
			c0.2,2.6,1.9,4.9,4.4,5.4c10.1,15.6,31.3,16.7,46.9,8.2c4.3,4,9.6,7,15.3,8.3c11,2.6,22.2-0.5,31-7.1c10.9,7.9,27,10.3,39.9,4.2
			c0.3-0.2,0.6-0.3,1-0.5c4.6,2.2,9.7,3.6,14.5,4.3c12,1.9,25.4,1.6,36.9-2.6C890.4,678,887.6,667.3,880.9,669.8z M752.8,646.1
			c-0.5,4.4-2.2,8.3-4.9,11.6c-0.3-0.9-0.5-1.7-0.7-2.7C746.3,649.8,748.8,646.7,752.8,646.1z M793.3,652.9c0.5,1.7-0.4,4-1.5,5.9
			c-1.2-2.5-1.8-5.2-1.7-8.3c0-0.3,0.1-0.6,0.1-0.8C791.7,650.4,792.9,651.4,793.3,652.9z M830,648.5c0.7-0.8,3.5-2.8,3.7-2.6
			c2.2,2.8,1.6,8.2,1.3,11.5c-0.3,3.3-1.4,5.9-3.1,8C827.1,661.2,825.7,653.5,830,648.5z"/>
		<path fill="#333333" d="M2210.3,669.8c-11.5,4.2-27.2,5.2-39.6,0.7c5.7-8.5,6.7-20.2,2.3-29.4c-4.1-8.5-14.2-6.5-20.1-1.6
			c-7,5.8-8.4,15.6-5.7,23.8c1,3,2.5,5.7,4.5,7.9c-7.3,1.7-16.2,0.1-22.8-4.1c0.2-0.3,0.4-0.6,0.6-0.8c3.5-4.8,5.3-11.1,3.7-16.9
			c-2-7.1-9.3-10.5-15.9-11.6c-3.1-0.5-5.7,0.8-6.8,3.8c-3.5,9.9-1.8,18.6,2.8,25.4c-5.9,4-13.3,5.7-20.4,4.3
			c-3.5-0.7-6.6-2.2-9.2-4.3c6.6-6.5,10.6-15.4,9.5-26c-0.3-2.4-1.5-4.7-4-5.3c-12.7-2.9-23.4,4.2-23.6,17.6c0,4.1,0.9,8,2.6,11.5
			c-1.5,0.8-3.1,1.4-4.8,1.9c-10.9,3.4-24.2,0.6-28.4-11.2c-0.7-2-2.1-3.2-3.7-3.7c-2.3-1.1-5-0.7-6.3,2.3c-0.8,1.8-1.7,3.6-1.6,5.7
			c0.2,2.6,1.9,4.9,4.4,5.4c10.1,15.6,31.3,16.7,46.9,8.2c4.3,4,9.6,7,15.3,8.3c11,2.6,22.2-0.5,31-7.1c10.9,7.9,27,10.3,39.9,4.2
			c0.3-0.2,0.6-0.3,1-0.5c4.6,2.2,9.7,3.6,14.5,4.3c12,1.9,25.4,1.6,36.9-2.6C2219.8,678,2217,667.3,2210.3,669.8z M2082.2,646.1
			c-0.5,4.4-2.2,8.3-4.9,11.6c-0.3-0.9-0.5-1.7-0.7-2.7C2075.7,649.8,2078.2,646.7,2082.2,646.1z M2122.7,652.9
			c0.5,1.7-0.4,4-1.5,5.9c-1.2-2.5-1.8-5.2-1.7-8.3c0-0.3,0.1-0.6,0.1-0.8C2121.1,650.4,2122.3,651.4,2122.7,652.9z M2159.4,648.5
			c0.7-0.8,3.5-2.8,3.7-2.6c2.2,2.8,1.6,8.2,1.3,11.5c-0.3,3.3-1.4,5.9-3.1,8C2156.5,661.2,2155.1,653.5,2159.4,648.5z"/>
	</g>
	<g>
		<path fill="#333333" d="M1470.1,1068.3c-15.2-19.2-23.6-43.3-42-60c-5-4.5-12.3,2.3-8.4,7.1c-0.3,0.4-0.6,0.8-0.8,1.3
			c-8.1,19.7-21.9,36.3-30,56c-1.5,3.6,2.1,6.7,5.3,7c24.1,1.8,47.9-3.8,72-2C1471.5,1078.1,1472.7,1071.7,1470.1,1068.3z
			 M1402.5,1069.1c7.5-15.5,18-29.5,25.2-45.2c10.9,12.8,18.4,28.4,27.7,42.6C1437.7,1066.4,1420.1,1069.3,1402.5,1069.1z"/>
		<path fill="#333333" d="M1553,1014.4c-15.2-19.2-23.6-43.3-42-60c-5-4.5-12.3,2.3-8.4,7.1c-0.3,0.4-0.6,0.8-0.8,1.3
			c-8.1,19.7-21.9,36.3-30,56c-1.5,3.6,2.1,6.7,5.3,7c24.1,1.8,47.9-3.8,72-2C1554.4,1024.2,1555.6,1017.7,1553,1014.4z"/>
		<path fill="#333333" d="M2334.2,432.3c-15.2-19.2-23.6-43.3-42-60c-5-4.5-12.3,2.3-8.4,7.1c-0.3,0.4-0.6,0.8-0.8,1.3
			c-8.1,19.7-21.9,36.3-30,56c-1.5,3.6,2.1,6.7,5.3,7c24.1,1.8,47.9-3.8,72-2C2335.6,442.1,2336.8,435.6,2334.2,432.3z M2266.6,433
			c7.5-15.5,18-29.5,25.2-45.2c10.9,12.8,18.4,28.4,27.7,42.6C2301.8,430.4,2284.2,433.2,2266.6,433z"/>
		<path fill="#333333" d="M2417.1,378.3c-15.2-19.2-23.6-43.3-42-60c-5-4.5-12.3,2.3-8.4,7.1c-0.3,0.4-0.6,0.8-0.8,1.3
			c-8.1,19.7-21.9,36.3-30,56c-1.5,3.6,2.1,6.7,5.3,7c24.1,1.8,47.9-3.8,72-2C2418.5,388.1,2419.7,381.7,2417.1,378.3z"/>
		<path fill="#333333" d="M599.3,432.3c-15.2-19.2-23.6-43.3-42-60c-5-4.5-12.3,2.3-8.4,7.1c-0.3,0.4-0.6,0.8-0.8,1.3
			c-8.1,19.7-21.9,36.3-30,56c-1.5,3.6,2.1,6.7,5.3,7c24.1,1.8,47.9-3.8,72-2C600.7,442.1,601.9,435.6,599.3,432.3z M531.7,433
			c7.5-15.5,18-29.5,25.2-45.2c10.9,12.8,18.4,28.4,27.7,42.6C566.9,430.4,549.3,433.2,531.7,433z"/>
		<path fill="#333333" d="M682.2,378.3c-15.2-19.2-23.6-43.3-42-60c-5-4.5-12.3,2.3-8.4,7.1c-0.3,0.4-0.6,0.8-0.8,1.3
			c-8.1,19.7-21.9,36.3-30,56c-1.5,3.6,2.1,6.7,5.3,7c24.1,1.8,47.9-3.8,72-2C683.6,388.1,684.8,381.7,682.2,378.3z"/>
		<circle fill="#333333" cx="2390.4" cy="939.4" r="13.4"/>
		<circle fill="#333333" cx="1430" cy="2286.9" r="13.4"/>
		<circle fill="#333333" cx="281.9" cy="2474" r="13.4"/>
		<circle fill="#333333" cx="2106.7" cy="2561.2" r="13.4"/>
		<circle fill="#333333" cx="1374.8" cy="2547.7" r="13.4"/>
		<circle fill="#333333" cx="281.9" cy="952.9" r="13.4"/>
		<circle fill="#333333" cx="1781.5" cy="380.3" r="13.4"/>
		<circle fill="#FFCA73" cx="2462.3" cy="2447.2" r="13.4"/>
		<circle fill="#FFCA73" cx="1727.3" cy="2406.8" r="13.4"/>
		<circle fill="#F64067" cx="2538.5" cy="2420.3" r="13.4"/>
		<circle fill="#F64067" cx="660" cy="2474" r="13.4"/>
		<circle fill="#FFCA73" cx="1232" cy="366.9" r="13.4"/>
		<circle fill="#FFCA73" cx="2120.2" cy="867.4" r="13.4"/>
		<circle fill="#FFCA73" cx="2565.3" cy="1552" r="13.4"/>
		<circle fill="#F64067" cx="1308.1" cy="340" r="13.4"/>
		<circle fill="#F64067" cx="585.6" cy="854" r="13.4"/>
		<circle fill="#F64067" cx="229.4" cy="2141.3" r="13.4"/>
	</g>
</g>
</svg>
